<svg version="1.1" id="Layer_1" xmlns="http://www.w3.org/2000/svg" xmlns:xlink="http://www.w3.org/1999/xlink" x="0px" y="0px"
	 width="100%" viewBox="0 0 400 400" enable-background="new 0 0 400 400" xml:space="preserve">
<path fill="#0000DB" opacity="1.000000" stroke="none" 
	d="
M0.999996,370.000000 
	C1.000000,257.311310 1.000000,144.622650 1.350762,31.648075 
	C2.073612,31.043087 2.652911,30.793995 2.787787,30.394760 
	C7.347219,16.898754 16.608950,8.069723 29.733152,2.981191 
	C30.322838,2.752558 30.585184,1.679658 31.000000,1.000000 
	C144.022018,1.000000 257.044037,1.000000 370.351654,1.350301 
	C370.956055,2.073033 371.202789,2.642639 371.604095,2.789335 
	C384.827820,7.623108 394.198975,16.333899 399.021271,29.732895 
	C399.231506,30.316982 400.320404,30.584833 401.000000,30.999996 
	C401.000000,143.688675 401.000000,256.377350 400.641846,369.342468 
	C399.880096,370.109100 399.273651,370.537506 399.102783,371.098541 
	C395.801361,381.938385 389.378235,390.152039 379.228577,395.451416 
	C376.314423,396.972900 373.733643,399.132812 371.000000,401.000000 
	C257.977997,401.000000 144.955978,401.000000 31.656746,400.655945 
	C28.824539,398.937561 26.270435,397.561554 23.714415,396.189117 
	C13.612881,390.765015 6.598088,382.739471 2.970777,371.788727 
	C2.727859,371.055359 1.675746,370.590027 0.999996,370.000000 
M226.247910,118.828156 
	C225.908585,118.677063 225.569260,118.525970 225.229935,118.374878 
	C225.459900,118.941429 225.689865,119.507980 225.992706,120.870300 
	C230.928635,139.154633 230.682755,145.091934 223.867142,162.697433 
	C219.420166,156.690048 214.580460,151.606720 211.525055,145.613724 
	C208.496201,139.672775 207.265366,132.815186 205.345749,126.678703 
	C194.706924,138.457489 189.260483,153.149628 185.182602,169.765869 
	C182.679581,160.310135 180.608582,151.572556 172.999985,144.650620 
	C172.999985,149.005966 173.013535,152.446960 172.997238,155.887802 
	C172.960815,163.578552 169.942123,170.437515 165.799759,176.501297 
	C155.765320,191.190155 145.726532,205.491760 143.690308,224.148407 
	C142.288071,236.996460 144.007324,248.985397 149.777618,260.009277 
	C158.919846,277.475098 174.000137,287.263397 193.594055,289.902679 
	C198.347046,290.542877 202.730026,290.253967 205.884247,285.704803 
	C208.387070,282.095093 211.621826,278.978210 213.982559,275.291016 
	C215.102371,273.541962 215.807861,270.699646 215.216888,268.819000 
	C211.644745,257.451447 211.422775,245.790039 212.180588,234.157501 
	C212.590195,227.869965 214.634308,221.688904 215.941055,215.459808 
	C217.467514,227.985214 219.928070,236.481461 224.070480,240.304504 
	C223.172333,222.341934 226.730270,205.642792 236.819397,190.579453 
	C236.184311,204.165176 237.478531,217.337524 243.124420,229.937744 
	C244.226898,228.624939 245.110809,227.475739 246.093307,226.418152 
	C252.458755,219.566010 256.263123,211.186096 257.794769,202.286255 
	C259.997131,189.489182 258.059418,176.889938 254.284622,164.304504 
	C249.001999,146.691788 238.701370,132.527374 226.247910,118.828156 
z"/>
<path fill="#000000" opacity="1.000000" stroke="none" 
	d="
M0.999996,370.468658 
	C1.675746,370.590027 2.727859,371.055359 2.970777,371.788727 
	C6.598088,382.739471 13.612881,390.765015 23.714415,396.189117 
	C26.270435,397.561554 28.824539,398.937561 31.189762,400.655945 
	C21.072283,401.000000 11.144567,401.000000 1.000000,401.000000 
	C1.000000,390.980133 1.000000,380.958740 0.999996,370.468658 
z"/>
<path fill="#000000" opacity="1.000000" stroke="none" 
	d="
M371.468658,401.000000 
	C373.733643,399.132812 376.314423,396.972900 379.228577,395.451416 
	C389.378235,390.152039 395.801361,381.938385 399.102783,371.098541 
	C399.273651,370.537506 399.880096,370.109100 400.641846,369.809448 
	C401.000000,380.258636 401.000000,390.517273 401.000000,401.000000 
	C391.313599,401.000000 381.625458,401.000000 371.468658,401.000000 
z"/>
<path fill="#000000" opacity="1.000000" stroke="none" 
	d="
M30.531342,1.000000 
	C30.585184,1.679658 30.322838,2.752558 29.733152,2.981191 
	C16.608950,8.069723 7.347219,16.898754 2.787787,30.394760 
	C2.652911,30.793995 2.073612,31.043087 1.350762,31.181091 
	C1.000000,21.073496 1.000000,11.146992 1.000000,1.000000 
	C10.686449,1.000000 20.374567,1.000000 30.531342,1.000000 
z"/>
<path fill="#000000" opacity="1.000000" stroke="none" 
	d="
M401.000000,30.531340 
	C400.320404,30.584833 399.231506,30.316982 399.021271,29.732895 
	C394.198975,16.333899 384.827820,7.623108 371.604095,2.789335 
	C371.202789,2.642639 370.956055,2.073033 370.818634,1.350301 
	C380.926514,1.000000 390.852997,1.000000 401.000000,1.000000 
	C401.000000,10.686449 401.000000,20.374567 401.000000,30.531340 
z"/>
<path fill="#FFFFFF" opacity="1.000000" stroke="none" 
	d="
M226.635254,119.270950 
	C238.701370,132.527374 249.001999,146.691788 254.284622,164.304504 
	C258.059418,176.889938 259.997131,189.489182 257.794769,202.286255 
	C256.263123,211.186096 252.458755,219.566010 246.093307,226.418152 
	C245.110809,227.475739 244.226898,228.624939 243.124420,229.937744 
	C237.478531,217.337524 236.184311,204.165176 236.819397,190.579453 
	C226.730270,205.642792 223.172333,222.341934 224.070480,240.304504 
	C219.928070,236.481461 217.467514,227.985214 215.941055,215.459808 
	C214.634308,221.688904 212.590195,227.869965 212.180588,234.157501 
	C211.422775,245.790039 211.644745,257.451447 215.216888,268.819000 
	C215.807861,270.699646 215.102371,273.541962 213.982559,275.291016 
	C211.621826,278.978210 208.387070,282.095093 205.884247,285.704803 
	C202.730026,290.253967 198.347046,290.542877 193.594055,289.902679 
	C174.000137,287.263397 158.919846,277.475098 149.777618,260.009277 
	C144.007324,248.985397 142.288071,236.996460 143.690308,224.148407 
	C145.726532,205.491760 155.765320,191.190155 165.799759,176.501297 
	C169.942123,170.437515 172.960815,163.578552 172.997238,155.887802 
	C173.013535,152.446960 172.999985,149.005966 172.999985,144.650620 
	C180.608582,151.572556 182.679581,160.310135 185.182602,169.765869 
	C189.260483,153.149628 194.706924,138.457489 205.345749,126.678703 
	C207.265366,132.815186 208.496201,139.672775 211.525055,145.613724 
	C214.580460,151.606720 219.420166,156.690048 223.867142,162.697433 
	C230.682755,145.091934 230.928635,139.154633 226.139038,120.275009 
	C226.401993,119.543472 226.518616,119.407211 226.635254,119.270950 
z"/>
<path fill="#FFFFFF" opacity="1.000000" stroke="none" 
	d="
M226.102600,119.877129 
	C225.689865,119.507980 225.459900,118.941429 225.229935,118.374878 
	C225.569260,118.525970 225.908585,118.677063 226.441589,119.049553 
	C226.518616,119.407211 226.401993,119.543472 226.102600,119.877129 
z"/>
</svg>
