<svg version="1.1" id="Layer_1" xmlns="http://www.w3.org/2000/svg" xmlns:xlink="http://www.w3.org/1999/xlink" x="0px" y="0px"
	 width="100%" viewBox="0 0 400 400" xml:space="preserve">
<path fill="#FFFFFF" opacity="1.000000" stroke="none" 
	d="
M226.635254,119.270950 
	C238.701370,132.527374 249.001999,146.691788 254.284622,164.304504 
	C258.059418,176.889938 259.997131,189.489182 257.794769,202.286255 
	C256.263123,211.186096 252.458755,219.566010 246.093307,226.418152 
	C245.110809,227.475739 244.226898,228.624939 243.124420,229.937744 
	C237.478531,217.337524 236.184311,204.165176 236.819397,190.579453 
	C226.730270,205.642792 223.172333,222.341934 224.070480,240.304504 
	C219.928070,236.481461 217.467514,227.985214 215.941055,215.459808 
	C214.634308,221.688904 212.590195,227.869965 212.180588,234.157501 
	C211.422775,245.790039 211.644745,257.451447 215.216888,268.819000 
	C215.807861,270.699646 215.102371,273.541962 213.982559,275.291016 
	C211.621826,278.978210 208.387070,282.095093 205.884247,285.704803 
	C202.730026,290.253967 198.347046,290.542877 193.594055,289.902679 
	C174.000137,287.263397 158.919846,277.475098 149.777618,260.009277 
	C144.007324,248.985397 142.288071,236.996460 143.690308,224.148407 
	C145.726532,205.491760 155.765320,191.190155 165.799759,176.501297 
	C169.942123,170.437515 172.960815,163.578552 172.997238,155.887802 
	C173.013535,152.446960 172.999985,149.005966 172.999985,144.650620 
	C180.608582,151.572556 182.679581,160.310135 185.182602,169.765869 
	C189.260483,153.149628 194.706924,138.457489 205.345749,126.678703 
	C207.265366,132.815186 208.496201,139.672775 211.525055,145.613724 
	C214.580460,151.606720 219.420166,156.690048 223.867142,162.697433 
	C230.682755,145.091934 230.928635,139.154633 226.139038,120.275009 
	C226.401993,119.543472 226.518616,119.407211 226.635254,119.270950 
z"/>
<path fill="#FFFFFF" opacity="1.000000" stroke="none" 
	d="
M226.102600,119.877129 
	C225.689865,119.507980 225.459900,118.941429 225.229935,118.374878 
	C225.569260,118.525970 225.908585,118.677063 226.441589,119.049553 
	C226.518616,119.407211 226.401993,119.543472 226.102600,119.877129 
z"/>
</svg>
